<?xml version="1.0" standalone="no"?><!DOCTYPE svg PUBLIC "-//W3C//DTD SVG 1.1//EN" "http://www.w3.org/Graphics/SVG/1.1/DTD/svg11.dtd"><svg t="1565750423910" class="icon" viewBox="0 0 1024 1024" version="1.1" xmlns="http://www.w3.org/2000/svg" p-id="1274" xmlns:xlink="http://www.w3.org/1999/xlink" width="200" height="200"><defs><style type="text/css"></style></defs><path d="M291.84 841.856a65.6 65.6 0 0 1-29.397333 10.752c-1.386667 0.170667-2.730667 0.277333-4.096 0.384-1.301333 0.064-2.517333 0.341333-3.818667 0.341333-0.746667 0-1.472-0.192-2.218667-0.213333a66.602667 66.602667 0 0 1-9.258666-0.853333c-18.197333-3.264-33.344-12.266667-42.453334-26.56-1.109333-1.770667-1.813333-3.626667-2.688-5.461334-0.448-0.917333-0.96-1.792-1.365333-2.730666a54.506667 54.506667 0 0 1-1.877333-5.461334 57.216 57.216 0 0 1-1.706667-6.890666c-0.490667-3.349333-0.96-5.973333-0.96-8.725334V227.562667c0-2.773333 0.469333-5.376 0.874667-8.021334 0.490667-3.072 1.109333-5.333333 1.792-7.594666 0.554667-1.834667 1.130667-3.669333 1.877333-5.461334 0.426667-0.938667 0.917333-1.813333 1.365333-2.730666 0.853333-1.813333 1.578667-3.690667 2.688-5.461334 9.109333-14.293333 24.256-23.296 40.810667-26.325333 4.714667-0.725333 7.808-1.066667 10.901333-1.088 0.746667-0.021333 1.493333-0.213333 2.218667-0.213333 1.301333 0 2.517333 0.277333 3.818667 0.341333 1.365333 0.106667 2.709333 0.213333 4.096 0.384 10.922667 1.28 20.970667 4.992 29.397333 10.752L814.869333 457.386667c21.653333 11.328 42.069333 33.493333 37.930667 54.592 4.138667 21.12-16.277333 43.264-37.930667 54.592L291.84 841.856z" p-id="1275" fill="#1afa29"></path></svg>